<mxfile host="app.diagrams.net" modified="2022-11-23T14:27:15.026Z" agent="5.0 (Windows NT 10.0; Win64; x64) AppleWebKit/537.36 (KHTML, like Gecko) Chrome/107.0.0.0 Safari/537.36" etag="RGsqnLvUACYzK-m_DKr9" version="20.6.0" type="github">
  <diagram id="up5iI3iQv7PyqTdMi2UR" name="Страница 1">
    <mxGraphModel dx="1038" dy="1716" grid="1" gridSize="10" guides="1" tooltips="1" connect="1" arrows="1" fold="1" page="1" pageScale="1" pageWidth="827" pageHeight="1169" math="0" shadow="0">
      <root>
        <mxCell id="0" />
        <mxCell id="1" parent="0" />
        <mxCell id="2HNQQZp9qXN_uULMF0lr-115" style="edgeStyle=orthogonalEdgeStyle;rounded=0;orthogonalLoop=1;jettySize=auto;html=1;exitX=1;exitY=0.75;exitDx=0;exitDy=0;entryX=0;entryY=0.75;entryDx=0;entryDy=0;fontSize=24;" parent="1" source="2HNQQZp9qXN_uULMF0lr-110" target="2HNQQZp9qXN_uULMF0lr-51" edge="1">
          <mxGeometry relative="1" as="geometry" />
        </mxCell>
        <mxCell id="2HNQQZp9qXN_uULMF0lr-125" style="edgeStyle=orthogonalEdgeStyle;rounded=0;orthogonalLoop=1;jettySize=auto;html=1;exitX=1;exitY=0.25;exitDx=0;exitDy=0;fontSize=14;entryX=0;entryY=0.25;entryDx=0;entryDy=0;" parent="1" source="2HNQQZp9qXN_uULMF0lr-110" target="2HNQQZp9qXN_uULMF0lr-51" edge="1">
          <mxGeometry relative="1" as="geometry">
            <mxPoint x="260.07692307692287" y="1078" as="targetPoint" />
          </mxGeometry>
        </mxCell>
        <mxCell id="2HNQQZp9qXN_uULMF0lr-110" value="" style="rounded=0;whiteSpace=wrap;html=1;fontSize=24;fillColor=#dae8fc;strokeColor=#6c8ebf;" parent="1" vertex="1">
          <mxGeometry x="60" y="664" width="140" height="436" as="geometry" />
        </mxCell>
        <mxCell id="2HNQQZp9qXN_uULMF0lr-23" value="" style="rounded=0;whiteSpace=wrap;html=1;fillColor=#dae8fc;strokeColor=#6c8ebf;" parent="1" vertex="1">
          <mxGeometry width="120" height="405" as="geometry" />
        </mxCell>
        <mxCell id="2HNQQZp9qXN_uULMF0lr-1" value="" style="whiteSpace=wrap;html=1;aspect=fixed;fillColor=#f8cecc;strokeColor=#b85450;" parent="1" vertex="1">
          <mxGeometry x="378" y="115" width="200" height="200" as="geometry" />
        </mxCell>
        <mxCell id="2HNQQZp9qXN_uULMF0lr-3" value="" style="shape=note;whiteSpace=wrap;html=1;backgroundOutline=1;darkOpacity=0.05;" parent="1" vertex="1">
          <mxGeometry x="20" y="60" width="80" height="100" as="geometry" />
        </mxCell>
        <mxCell id="2HNQQZp9qXN_uULMF0lr-4" value="" style="shape=flexArrow;endArrow=classic;html=1;rounded=0;width=20;endSize=3.67;fillColor=#dae8fc;strokeColor=#6c8ebf;" parent="1" edge="1">
          <mxGeometry width="50" height="50" relative="1" as="geometry">
            <mxPoint x="130" y="120" as="sourcePoint" />
            <mxPoint x="200" y="120" as="targetPoint" />
            <Array as="points">
              <mxPoint x="170" y="120" />
            </Array>
          </mxGeometry>
        </mxCell>
        <mxCell id="2HNQQZp9qXN_uULMF0lr-5" value="модуль взаимодействия с источниками&amp;nbsp;" style="rounded=0;whiteSpace=wrap;html=1;fillColor=#ffe6cc;strokeColor=#d79b00;" parent="1" vertex="1">
          <mxGeometry x="638" y="50" width="120" height="60" as="geometry" />
        </mxCell>
        <mxCell id="2HNQQZp9qXN_uULMF0lr-6" value="Shodan" style="rounded=0;whiteSpace=wrap;html=1;fillColor=#fff2cc;strokeColor=#d6b656;" parent="1" vertex="1">
          <mxGeometry x="788" y="20" width="90" height="40" as="geometry" />
        </mxCell>
        <mxCell id="2HNQQZp9qXN_uULMF0lr-7" value="Censys" style="rounded=0;whiteSpace=wrap;html=1;fillColor=#fff2cc;strokeColor=#d6b656;" parent="1" vertex="1">
          <mxGeometry x="788" y="80" width="90" height="40" as="geometry" />
        </mxCell>
        <mxCell id="2HNQQZp9qXN_uULMF0lr-8" value="" style="shape=flexArrow;endArrow=classic;startArrow=classic;html=1;rounded=0;fillColor=#f8cecc;strokeColor=#b85450;" parent="1" edge="1">
          <mxGeometry width="100" height="100" relative="1" as="geometry">
            <mxPoint x="578" y="125" as="sourcePoint" />
            <mxPoint x="638" y="75" as="targetPoint" />
            <Array as="points">
              <mxPoint x="638" y="75" />
            </Array>
          </mxGeometry>
        </mxCell>
        <mxCell id="2HNQQZp9qXN_uULMF0lr-9" value="" style="endArrow=classic;startArrow=classic;html=1;rounded=0;" parent="1" edge="1">
          <mxGeometry width="50" height="50" relative="1" as="geometry">
            <mxPoint x="758" y="60" as="sourcePoint" />
            <mxPoint x="788" y="40" as="targetPoint" />
          </mxGeometry>
        </mxCell>
        <mxCell id="2HNQQZp9qXN_uULMF0lr-10" value="" style="endArrow=classic;startArrow=classic;html=1;rounded=0;entryX=0;entryY=0.5;entryDx=0;entryDy=0;" parent="1" target="2HNQQZp9qXN_uULMF0lr-7" edge="1">
          <mxGeometry width="50" height="50" relative="1" as="geometry">
            <mxPoint x="758" y="90" as="sourcePoint" />
            <mxPoint x="788" y="70" as="targetPoint" />
            <Array as="points" />
          </mxGeometry>
        </mxCell>
        <mxCell id="2HNQQZp9qXN_uULMF0lr-11" value="" style="shape=flexArrow;endArrow=classic;html=1;rounded=0;fillColor=#f8cecc;strokeColor=#b85450;" parent="1" edge="1">
          <mxGeometry width="50" height="50" relative="1" as="geometry">
            <mxPoint x="477.5" y="325" as="sourcePoint" />
            <mxPoint x="477.5" y="375" as="targetPoint" />
          </mxGeometry>
        </mxCell>
        <mxCell id="2HNQQZp9qXN_uULMF0lr-13" value="" style="shape=actor;whiteSpace=wrap;html=1;" parent="1" vertex="1">
          <mxGeometry x="35" y="260" width="50" height="80" as="geometry" />
        </mxCell>
        <mxCell id="2HNQQZp9qXN_uULMF0lr-14" value="" style="shape=flexArrow;endArrow=classic;html=1;rounded=0;width=20;endSize=3.67;fillColor=#dae8fc;strokeColor=#6c8ebf;" parent="1" edge="1">
          <mxGeometry width="50" height="50" relative="1" as="geometry">
            <mxPoint x="130" y="313.82" as="sourcePoint" />
            <mxPoint x="200" y="313.82" as="targetPoint" />
            <Array as="points">
              <mxPoint x="170" y="313.82" />
            </Array>
          </mxGeometry>
        </mxCell>
        <mxCell id="2HNQQZp9qXN_uULMF0lr-20" value="" style="shape=flexArrow;endArrow=classic;html=1;rounded=0;width=20;endSize=3.67;fillColor=#f8cecc;strokeColor=#b85450;" parent="1" edge="1">
          <mxGeometry width="50" height="50" relative="1" as="geometry">
            <mxPoint x="590" y="285" as="sourcePoint" />
            <mxPoint x="660" y="285" as="targetPoint" />
            <Array as="points" />
          </mxGeometry>
        </mxCell>
        <mxCell id="2HNQQZp9qXN_uULMF0lr-21" value="Логи" style="shape=card;whiteSpace=wrap;html=1;fillColor=#e1d5e7;strokeColor=#9673a6;" parent="1" vertex="1">
          <mxGeometry x="668" y="225" width="80" height="100" as="geometry" />
        </mxCell>
        <mxCell id="2HNQQZp9qXN_uULMF0lr-24" value="&lt;font style=&quot;font-size: 18px;&quot;&gt;Входные данные&amp;nbsp;&lt;/font&gt;" style="text;html=1;strokeColor=none;fillColor=none;align=center;verticalAlign=middle;whiteSpace=wrap;rounded=0;" parent="1" vertex="1">
          <mxGeometry x="30" y="10" width="60" height="30" as="geometry" />
        </mxCell>
        <mxCell id="2HNQQZp9qXN_uULMF0lr-25" value="" style="rounded=0;whiteSpace=wrap;html=1;fontSize=18;fillColor=#f5f5f5;fontColor=#333333;strokeColor=#666666;" parent="1" vertex="1">
          <mxGeometry x="200" y="100" width="120" height="240" as="geometry" />
        </mxCell>
        <mxCell id="2HNQQZp9qXN_uULMF0lr-26" value="Проверка&amp;nbsp; &amp;nbsp;ввода" style="text;html=1;strokeColor=none;fillColor=none;align=center;verticalAlign=middle;whiteSpace=wrap;rounded=0;fontSize=18;" parent="1" vertex="1">
          <mxGeometry x="230" y="195" width="60" height="30" as="geometry" />
        </mxCell>
        <mxCell id="2HNQQZp9qXN_uULMF0lr-31" value="Запрос пользователя&lt;br&gt;" style="text;html=1;strokeColor=none;fillColor=none;align=center;verticalAlign=middle;whiteSpace=wrap;rounded=0;fontSize=18;" parent="1" vertex="1">
          <mxGeometry x="30" y="350" width="60" height="30" as="geometry" />
        </mxCell>
        <mxCell id="2HNQQZp9qXN_uULMF0lr-32" value="Файл с IP адресами и email" style="text;html=1;strokeColor=none;fillColor=none;align=center;verticalAlign=middle;whiteSpace=wrap;rounded=0;fontSize=18;" parent="1" vertex="1">
          <mxGeometry x="30" y="190" width="60" height="30" as="geometry" />
        </mxCell>
        <mxCell id="2HNQQZp9qXN_uULMF0lr-33" value="" style="shape=flexArrow;endArrow=classic;html=1;rounded=0;fontSize=18;fillColor=#f5f5f5;strokeColor=#666666;" parent="1" edge="1">
          <mxGeometry width="50" height="50" relative="1" as="geometry">
            <mxPoint x="328" y="218.82" as="sourcePoint" />
            <mxPoint x="378" y="218.82" as="targetPoint" />
            <Array as="points">
              <mxPoint x="358" y="218.82" />
            </Array>
          </mxGeometry>
        </mxCell>
        <mxCell id="2HNQQZp9qXN_uULMF0lr-34" value="ядро" style="text;html=1;strokeColor=none;fillColor=none;align=center;verticalAlign=middle;whiteSpace=wrap;rounded=0;fontSize=18;" parent="1" vertex="1">
          <mxGeometry x="448" y="195" width="60" height="30" as="geometry" />
        </mxCell>
        <mxCell id="2HNQQZp9qXN_uULMF0lr-89" style="edgeStyle=orthogonalEdgeStyle;rounded=0;orthogonalLoop=1;jettySize=auto;html=1;fontSize=24;" parent="1" source="2HNQQZp9qXN_uULMF0lr-35" target="2HNQQZp9qXN_uULMF0lr-79" edge="1">
          <mxGeometry relative="1" as="geometry" />
        </mxCell>
        <mxCell id="2HNQQZp9qXN_uULMF0lr-121" style="edgeStyle=orthogonalEdgeStyle;rounded=0;orthogonalLoop=1;jettySize=auto;html=1;exitX=1;exitY=0.5;exitDx=0;exitDy=0;entryX=0;entryY=0.5;entryDx=0;entryDy=0;fontSize=24;" parent="1" source="2HNQQZp9qXN_uULMF0lr-35" target="2HNQQZp9qXN_uULMF0lr-38" edge="1">
          <mxGeometry relative="1" as="geometry" />
        </mxCell>
        <mxCell id="2HNQQZp9qXN_uULMF0lr-35" value="" style="whiteSpace=wrap;html=1;aspect=fixed;fillColor=#f8cecc;strokeColor=#b85450;" parent="1" vertex="1">
          <mxGeometry x="448" y="784" width="200" height="200" as="geometry" />
        </mxCell>
        <mxCell id="2HNQQZp9qXN_uULMF0lr-36" value="" style="shape=note;whiteSpace=wrap;html=1;backgroundOutline=1;darkOpacity=0.05;" parent="1" vertex="1">
          <mxGeometry x="90" y="729" width="80" height="100" as="geometry" />
        </mxCell>
        <mxCell id="2HNQQZp9qXN_uULMF0lr-94" style="edgeStyle=orthogonalEdgeStyle;rounded=0;orthogonalLoop=1;jettySize=auto;html=1;exitX=0.5;exitY=1;exitDx=0;exitDy=0;entryX=1;entryY=0.5;entryDx=0;entryDy=0;fontSize=24;" parent="1" source="2HNQQZp9qXN_uULMF0lr-38" target="2HNQQZp9qXN_uULMF0lr-79" edge="1">
          <mxGeometry relative="1" as="geometry">
            <Array as="points">
              <mxPoint x="820" y="914" />
              <mxPoint x="820" y="1020" />
              <mxPoint x="640" y="1020" />
              <mxPoint x="640" y="1090" />
            </Array>
          </mxGeometry>
        </mxCell>
        <mxCell id="2HNQQZp9qXN_uULMF0lr-38" value="модуль взаимодействия с источниками&amp;nbsp;" style="rounded=0;whiteSpace=wrap;html=1;fillColor=#ffe6cc;strokeColor=#d79b00;" parent="1" vertex="1">
          <mxGeometry x="758" y="854" width="120" height="60" as="geometry" />
        </mxCell>
        <mxCell id="2HNQQZp9qXN_uULMF0lr-39" value="Shodan" style="rounded=0;whiteSpace=wrap;html=1;fillColor=#fff2cc;strokeColor=#d6b656;" parent="1" vertex="1">
          <mxGeometry x="940" y="854" width="90" height="40" as="geometry" />
        </mxCell>
        <mxCell id="2HNQQZp9qXN_uULMF0lr-40" value="Censys" style="rounded=0;whiteSpace=wrap;html=1;fillColor=#fff2cc;strokeColor=#d6b656;" parent="1" vertex="1">
          <mxGeometry x="900" y="929" width="90" height="40" as="geometry" />
        </mxCell>
        <mxCell id="2HNQQZp9qXN_uULMF0lr-42" value="" style="endArrow=classic;startArrow=classic;html=1;rounded=0;entryX=0;entryY=0.5;entryDx=0;entryDy=0;" parent="1" edge="1" target="2HNQQZp9qXN_uULMF0lr-39">
          <mxGeometry width="50" height="50" relative="1" as="geometry">
            <mxPoint x="880" y="880" as="sourcePoint" />
            <mxPoint x="939.9999999999998" y="834" as="targetPoint" />
          </mxGeometry>
        </mxCell>
        <mxCell id="2HNQQZp9qXN_uULMF0lr-43" value="" style="endArrow=classic;startArrow=classic;html=1;rounded=0;entryX=0;entryY=0.5;entryDx=0;entryDy=0;exitX=1;exitY=0.5;exitDx=0;exitDy=0;" parent="1" source="2HNQQZp9qXN_uULMF0lr-38" target="2HNQQZp9qXN_uULMF0lr-40" edge="1">
          <mxGeometry width="50" height="50" relative="1" as="geometry">
            <mxPoint x="867.9999999999998" y="880" as="sourcePoint" />
            <mxPoint x="898" y="860" as="targetPoint" />
            <Array as="points" />
          </mxGeometry>
        </mxCell>
        <mxCell id="2HNQQZp9qXN_uULMF0lr-46" value="" style="shape=actor;whiteSpace=wrap;html=1;" parent="1" vertex="1">
          <mxGeometry x="105" y="929" width="50" height="80" as="geometry" />
        </mxCell>
        <mxCell id="2HNQQZp9qXN_uULMF0lr-50" value="&lt;font style=&quot;font-size: 18px;&quot;&gt;Входные данные&amp;nbsp;&lt;/font&gt;" style="text;html=1;strokeColor=none;fillColor=none;align=center;verticalAlign=middle;whiteSpace=wrap;rounded=0;" parent="1" vertex="1">
          <mxGeometry x="100" y="679" width="60" height="30" as="geometry" />
        </mxCell>
        <mxCell id="2HNQQZp9qXN_uULMF0lr-91" style="edgeStyle=orthogonalEdgeStyle;rounded=0;orthogonalLoop=1;jettySize=auto;html=1;entryX=0;entryY=0.5;entryDx=0;entryDy=0;fontSize=24;" parent="1" source="2HNQQZp9qXN_uULMF0lr-51" target="2HNQQZp9qXN_uULMF0lr-79" edge="1">
          <mxGeometry relative="1" as="geometry">
            <Array as="points">
              <mxPoint x="330" y="1090" />
            </Array>
          </mxGeometry>
        </mxCell>
        <mxCell id="2HNQQZp9qXN_uULMF0lr-116" style="edgeStyle=orthogonalEdgeStyle;rounded=0;orthogonalLoop=1;jettySize=auto;html=1;exitX=1;exitY=0.5;exitDx=0;exitDy=0;entryX=0;entryY=0.5;entryDx=0;entryDy=0;fontSize=24;" parent="1" source="2HNQQZp9qXN_uULMF0lr-51" target="2HNQQZp9qXN_uULMF0lr-35" edge="1">
          <mxGeometry relative="1" as="geometry" />
        </mxCell>
        <mxCell id="2HNQQZp9qXN_uULMF0lr-51" value="" style="rounded=0;whiteSpace=wrap;html=1;fontSize=18;fillColor=#f5f5f5;fontColor=#333333;strokeColor=#666666;" parent="1" vertex="1">
          <mxGeometry x="270" y="764" width="120" height="240" as="geometry" />
        </mxCell>
        <mxCell id="2HNQQZp9qXN_uULMF0lr-52" value="Проверка&amp;nbsp; &amp;nbsp;ввода" style="text;html=1;strokeColor=none;fillColor=none;align=center;verticalAlign=middle;whiteSpace=wrap;rounded=0;fontSize=18;" parent="1" vertex="1">
          <mxGeometry x="300" y="864" width="60" height="30" as="geometry" />
        </mxCell>
        <mxCell id="2HNQQZp9qXN_uULMF0lr-53" value="Запрос пользователя&lt;br&gt;" style="text;html=1;strokeColor=none;fillColor=none;align=center;verticalAlign=middle;whiteSpace=wrap;rounded=0;fontSize=18;" parent="1" vertex="1">
          <mxGeometry x="100" y="1019" width="60" height="30" as="geometry" />
        </mxCell>
        <mxCell id="2HNQQZp9qXN_uULMF0lr-54" value="Файл с IP адресами и email" style="text;html=1;strokeColor=none;fillColor=none;align=center;verticalAlign=middle;whiteSpace=wrap;rounded=0;fontSize=18;" parent="1" vertex="1">
          <mxGeometry x="100" y="859" width="60" height="30" as="geometry" />
        </mxCell>
        <mxCell id="2HNQQZp9qXN_uULMF0lr-56" value="ядро" style="text;html=1;strokeColor=none;fillColor=none;align=center;verticalAlign=middle;whiteSpace=wrap;rounded=0;fontSize=18;" parent="1" vertex="1">
          <mxGeometry x="518" y="864" width="60" height="30" as="geometry" />
        </mxCell>
        <mxCell id="2HNQQZp9qXN_uULMF0lr-64" value="файл с ключами" style="shape=card;whiteSpace=wrap;html=1;fillColor=#ffe6cc;strokeColor=#d79b00;" parent="1" vertex="1">
          <mxGeometry x="658" y="-80" width="80" height="100" as="geometry" />
        </mxCell>
        <mxCell id="2HNQQZp9qXN_uULMF0lr-65" value="" style="endArrow=classic;startArrow=classic;html=1;rounded=0;fontSize=12;entryX=0.5;entryY=1;entryDx=0;entryDy=0;entryPerimeter=0;" parent="1" source="2HNQQZp9qXN_uULMF0lr-5" target="2HNQQZp9qXN_uULMF0lr-64" edge="1">
          <mxGeometry width="50" height="50" relative="1" as="geometry">
            <mxPoint x="670" y="70" as="sourcePoint" />
            <mxPoint x="720" y="20" as="targetPoint" />
          </mxGeometry>
        </mxCell>
        <mxCell id="2HNQQZp9qXN_uULMF0lr-66" value="Отчет&amp;nbsp;" style="shape=card;whiteSpace=wrap;html=1;fontSize=12;fillColor=#e1d5e7;strokeColor=#9673a6;" parent="1" vertex="1">
          <mxGeometry x="638" y="360" width="80" height="100" as="geometry" />
        </mxCell>
        <mxCell id="2HNQQZp9qXN_uULMF0lr-67" value="Модуль вывода на экран" style="rounded=0;whiteSpace=wrap;html=1;fontSize=12;fillColor=#ffe6cc;strokeColor=#d79b00;" parent="1" vertex="1">
          <mxGeometry x="420" y="380" width="120" height="60" as="geometry" />
        </mxCell>
        <mxCell id="2HNQQZp9qXN_uULMF0lr-68" value="" style="shape=flexArrow;endArrow=classic;html=1;rounded=0;width=20;endSize=3.67;fillColor=#f8cecc;strokeColor=#b85450;" parent="1" edge="1">
          <mxGeometry width="50" height="50" relative="1" as="geometry">
            <mxPoint x="550" y="409.29" as="sourcePoint" />
            <mxPoint x="620" y="409.29" as="targetPoint" />
            <Array as="points" />
          </mxGeometry>
        </mxCell>
        <mxCell id="2HNQQZp9qXN_uULMF0lr-69" value="&lt;font style=&quot;font-size: 24px;&quot;&gt;1&lt;/font&gt;" style="text;html=1;align=center;verticalAlign=middle;resizable=0;points=[];autosize=1;strokeColor=none;fillColor=none;fontSize=12;" parent="1" vertex="1">
          <mxGeometry x="140" y="60" width="40" height="40" as="geometry" />
        </mxCell>
        <mxCell id="2HNQQZp9qXN_uULMF0lr-70" value="2" style="text;html=1;align=center;verticalAlign=middle;resizable=0;points=[];autosize=1;strokeColor=none;fillColor=none;fontSize=24;" parent="1" vertex="1">
          <mxGeometry x="330" y="160" width="40" height="40" as="geometry" />
        </mxCell>
        <mxCell id="2HNQQZp9qXN_uULMF0lr-71" value="3,6" style="text;html=1;align=center;verticalAlign=middle;resizable=0;points=[];autosize=1;strokeColor=none;fillColor=none;fontSize=24;" parent="1" vertex="1">
          <mxGeometry x="550" y="50" width="60" height="40" as="geometry" />
        </mxCell>
        <mxCell id="2HNQQZp9qXN_uULMF0lr-72" value="4" style="text;html=1;align=center;verticalAlign=middle;resizable=0;points=[];autosize=1;strokeColor=none;fillColor=none;fontSize=24;" parent="1" vertex="1">
          <mxGeometry x="698" y="20" width="40" height="40" as="geometry" />
        </mxCell>
        <mxCell id="2HNQQZp9qXN_uULMF0lr-74" value="5" style="text;html=1;align=center;verticalAlign=middle;resizable=0;points=[];autosize=1;strokeColor=none;fillColor=none;fontSize=24;" parent="1" vertex="1">
          <mxGeometry x="758" y="50" width="40" height="40" as="geometry" />
        </mxCell>
        <mxCell id="2HNQQZp9qXN_uULMF0lr-76" value="7" style="text;html=1;align=center;verticalAlign=middle;resizable=0;points=[];autosize=1;strokeColor=none;fillColor=none;fontSize=24;" parent="1" vertex="1">
          <mxGeometry x="525" y="330" width="40" height="40" as="geometry" />
        </mxCell>
        <mxCell id="2HNQQZp9qXN_uULMF0lr-77" value="8" style="text;html=1;align=center;verticalAlign=middle;resizable=0;points=[];autosize=1;strokeColor=none;fillColor=none;fontSize=24;" parent="1" vertex="1">
          <mxGeometry x="560" y="360" width="40" height="40" as="geometry" />
        </mxCell>
        <mxCell id="2HNQQZp9qXN_uULMF0lr-78" value="Модуль вывода на экран" style="rounded=0;whiteSpace=wrap;html=1;fontSize=12;fillColor=#ffe6cc;strokeColor=#d79b00;" parent="1" vertex="1">
          <mxGeometry x="420" y="380" width="120" height="60" as="geometry" />
        </mxCell>
        <mxCell id="2HNQQZp9qXN_uULMF0lr-105" style="edgeStyle=orthogonalEdgeStyle;rounded=0;orthogonalLoop=1;jettySize=auto;html=1;exitX=0.5;exitY=1;exitDx=0;exitDy=0;entryX=0.5;entryY=0;entryDx=0;entryDy=0;fontSize=24;" parent="1" source="2HNQQZp9qXN_uULMF0lr-79" target="2HNQQZp9qXN_uULMF0lr-101" edge="1">
          <mxGeometry relative="1" as="geometry" />
        </mxCell>
        <mxCell id="DM3x3-8vK9B7Ih-X84AP-8" style="edgeStyle=orthogonalEdgeStyle;rounded=0;orthogonalLoop=1;jettySize=auto;html=1;exitX=0.5;exitY=1;exitDx=0;exitDy=0;" edge="1" parent="1" source="2HNQQZp9qXN_uULMF0lr-79">
          <mxGeometry relative="1" as="geometry">
            <mxPoint x="600" y="1180" as="targetPoint" />
          </mxGeometry>
        </mxCell>
        <mxCell id="DM3x3-8vK9B7Ih-X84AP-9" style="edgeStyle=orthogonalEdgeStyle;rounded=0;orthogonalLoop=1;jettySize=auto;html=1;entryX=0;entryY=0;entryDx=25;entryDy=0;entryPerimeter=0;" edge="1" parent="1" source="2HNQQZp9qXN_uULMF0lr-79" target="DM3x3-8vK9B7Ih-X84AP-6">
          <mxGeometry relative="1" as="geometry">
            <Array as="points">
              <mxPoint x="548" y="1150" />
              <mxPoint x="743" y="1150" />
            </Array>
          </mxGeometry>
        </mxCell>
        <mxCell id="2HNQQZp9qXN_uULMF0lr-79" value="Модуль вывода на экран" style="rounded=0;whiteSpace=wrap;html=1;fontSize=12;fillColor=#ffe6cc;strokeColor=#d79b00;" parent="1" vertex="1">
          <mxGeometry x="488" y="1060" width="120" height="60" as="geometry" />
        </mxCell>
        <mxCell id="2HNQQZp9qXN_uULMF0lr-101" value="Вывод на экран" style="swimlane;fontStyle=0;childLayout=stackLayout;horizontal=1;startSize=30;horizontalStack=0;resizeParent=1;resizeParentMax=0;resizeLast=0;collapsible=1;marginBottom=0;fontSize=24;" parent="1" vertex="1">
          <mxGeometry x="320" y="1180" width="184" height="120" as="geometry" />
        </mxCell>
        <mxCell id="2HNQQZp9qXN_uULMF0lr-102" value="Приветствие" style="text;strokeColor=none;fillColor=none;align=left;verticalAlign=middle;spacingLeft=4;spacingRight=4;overflow=hidden;points=[[0,0.5],[1,0.5]];portConstraint=eastwest;rotatable=0;fontSize=24;" parent="2HNQQZp9qXN_uULMF0lr-101" vertex="1">
          <mxGeometry y="30" width="184" height="30" as="geometry" />
        </mxCell>
        <mxCell id="2HNQQZp9qXN_uULMF0lr-103" value="Help" style="text;strokeColor=none;fillColor=none;align=left;verticalAlign=middle;spacingLeft=4;spacingRight=4;overflow=hidden;points=[[0,0.5],[1,0.5]];portConstraint=eastwest;rotatable=0;fontSize=24;" parent="2HNQQZp9qXN_uULMF0lr-101" vertex="1">
          <mxGeometry y="60" width="184" height="30" as="geometry" />
        </mxCell>
        <mxCell id="2HNQQZp9qXN_uULMF0lr-104" value="Отчет" style="text;strokeColor=none;fillColor=none;align=left;verticalAlign=middle;spacingLeft=4;spacingRight=4;overflow=hidden;points=[[0,0.5],[1,0.5]];portConstraint=eastwest;rotatable=0;fontSize=24;" parent="2HNQQZp9qXN_uULMF0lr-101" vertex="1">
          <mxGeometry y="90" width="184" height="30" as="geometry" />
        </mxCell>
        <mxCell id="2HNQQZp9qXN_uULMF0lr-111" value="&lt;font style=&quot;font-size: 14px;&quot;&gt;файл с ключами&lt;/font&gt;" style="shape=note;whiteSpace=wrap;html=1;backgroundOutline=1;darkOpacity=0.05;fontSize=24;" parent="1" vertex="1">
          <mxGeometry x="905" y="720" width="80" height="100" as="geometry" />
        </mxCell>
        <mxCell id="2HNQQZp9qXN_uULMF0lr-123" value="" style="endArrow=classic;startArrow=classic;html=1;rounded=0;entryX=0.5;entryY=1;entryDx=0;entryDy=0;entryPerimeter=0;exitX=0.75;exitY=0;exitDx=0;exitDy=0;" parent="1" source="2HNQQZp9qXN_uULMF0lr-38" target="2HNQQZp9qXN_uULMF0lr-111" edge="1">
          <mxGeometry width="50" height="50" relative="1" as="geometry">
            <mxPoint x="880" y="880" as="sourcePoint" />
            <mxPoint x="939.9999999999998" y="834" as="targetPoint" />
            <Array as="points" />
          </mxGeometry>
        </mxCell>
        <mxCell id="2HNQQZp9qXN_uULMF0lr-140" style="edgeStyle=orthogonalEdgeStyle;rounded=0;orthogonalLoop=1;jettySize=auto;html=1;fontSize=14;" parent="1" source="2HNQQZp9qXN_uULMF0lr-136" target="2HNQQZp9qXN_uULMF0lr-139" edge="1">
          <mxGeometry relative="1" as="geometry" />
        </mxCell>
        <mxCell id="2HNQQZp9qXN_uULMF0lr-136" value="&lt;font style=&quot;font-size: 14px;&quot;&gt;начало&lt;/font&gt;" style="ellipse;whiteSpace=wrap;html=1;fontSize=24;" parent="1" vertex="1">
          <mxGeometry x="407" y="1500" width="146" height="60" as="geometry" />
        </mxCell>
        <mxCell id="2HNQQZp9qXN_uULMF0lr-143" style="edgeStyle=orthogonalEdgeStyle;rounded=0;orthogonalLoop=1;jettySize=auto;html=1;exitX=1;exitY=0.5;exitDx=0;exitDy=0;fontSize=14;" parent="1" source="2HNQQZp9qXN_uULMF0lr-139" target="2HNQQZp9qXN_uULMF0lr-142" edge="1">
          <mxGeometry relative="1" as="geometry" />
        </mxCell>
        <mxCell id="2HNQQZp9qXN_uULMF0lr-144" style="edgeStyle=orthogonalEdgeStyle;rounded=0;orthogonalLoop=1;jettySize=auto;html=1;exitX=0;exitY=0.5;exitDx=0;exitDy=0;fontSize=14;" parent="1" source="2HNQQZp9qXN_uULMF0lr-139" target="2HNQQZp9qXN_uULMF0lr-141" edge="1">
          <mxGeometry relative="1" as="geometry" />
        </mxCell>
        <mxCell id="2HNQQZp9qXN_uULMF0lr-139" value="Считать IP/ домен" style="rhombus;whiteSpace=wrap;html=1;fontSize=14;" parent="1" vertex="1">
          <mxGeometry x="425" y="1590" width="110" height="90" as="geometry" />
        </mxCell>
        <mxCell id="2HNQQZp9qXN_uULMF0lr-141" value="" style="rounded=0;whiteSpace=wrap;html=1;fontSize=14;" parent="1" vertex="1">
          <mxGeometry x="170" y="1605" width="120" height="60" as="geometry" />
        </mxCell>
        <mxCell id="2HNQQZp9qXN_uULMF0lr-142" value="" style="rounded=0;whiteSpace=wrap;html=1;fontSize=14;" parent="1" vertex="1">
          <mxGeometry x="648" y="1605" width="120" height="60" as="geometry" />
        </mxCell>
        <mxCell id="2HNQQZp9qXN_uULMF0lr-145" value="ввод с консоли" style="text;html=1;align=center;verticalAlign=middle;resizable=0;points=[];autosize=1;strokeColor=none;fillColor=none;fontSize=14;" parent="1" vertex="1">
          <mxGeometry x="525" y="1605" width="120" height="30" as="geometry" />
        </mxCell>
        <mxCell id="2HNQQZp9qXN_uULMF0lr-146" value="считать с файла" style="text;html=1;align=center;verticalAlign=middle;resizable=0;points=[];autosize=1;strokeColor=none;fillColor=none;fontSize=14;" parent="1" vertex="1">
          <mxGeometry x="295" y="1605" width="130" height="30" as="geometry" />
        </mxCell>
        <mxCell id="DM3x3-8vK9B7Ih-X84AP-5" value="&lt;font style=&quot;font-size: 14px;&quot;&gt;&lt;font style=&quot;vertical-align: inherit;&quot;&gt;&lt;font style=&quot;vertical-align: inherit;&quot;&gt;логи&lt;/font&gt;&lt;/font&gt;&lt;/font&gt;" style="shape=note;whiteSpace=wrap;html=1;backgroundOutline=1;darkOpacity=0.05;fontSize=24;" vertex="1" parent="1">
          <mxGeometry x="565" y="1190" width="80" height="100" as="geometry" />
        </mxCell>
        <mxCell id="DM3x3-8vK9B7Ih-X84AP-6" value="&lt;font style=&quot;font-size: 14px;&quot;&gt;отчет&lt;/font&gt;" style="shape=note;whiteSpace=wrap;html=1;backgroundOutline=1;darkOpacity=0.05;fontSize=24;" vertex="1" parent="1">
          <mxGeometry x="718" y="1190" width="80" height="100" as="geometry" />
        </mxCell>
      </root>
    </mxGraphModel>
  </diagram>
</mxfile>
